<svg xmlns="http://www.w3.org/2000/svg" xmlns:xlink="http://www.w3.org/1999/xlink" width="500" zoomAndPan="magnify" viewBox="0 0 375 374.999991" height="500" preserveAspectRatio="xMidYMid meet" version="1.0"><defs><clipPath id="26f184009a"><path d="M 37.5 37.5 L 337.5 37.5 L 337.5 337.5 L 37.5 337.5 Z M 37.5 37.5 " clip-rule="nonzero"/></clipPath><clipPath id="e1e86794da"><path d="M 54.75 37.5 L 320.25 37.5 C 324.824219 37.5 329.210938 39.316406 332.449219 42.550781 C 335.683594 45.789062 337.5 50.175781 337.5 54.75 L 337.5 320.25 C 337.5 324.824219 335.683594 329.210938 332.449219 332.449219 C 329.210938 335.683594 324.824219 337.5 320.25 337.5 L 54.75 337.5 C 50.175781 337.5 45.789062 335.683594 42.550781 332.449219 C 39.316406 329.210938 37.5 324.824219 37.5 320.25 L 37.5 54.75 C 37.5 50.175781 39.316406 45.789062 42.550781 42.550781 C 45.789062 39.316406 50.175781 37.5 54.75 37.5 Z M 54.75 37.5 " clip-rule="nonzero"/></clipPath><clipPath id="762b84b1eb"><path d="M 0.5 0.5 L 300.5 0.5 L 300.5 300.5 L 0.5 300.5 Z M 0.5 0.5 " clip-rule="nonzero"/></clipPath><clipPath id="6f832869cb"><path d="M 17.75 0.5 L 283.25 0.5 C 287.824219 0.5 292.210938 2.316406 295.449219 5.550781 C 298.683594 8.789062 300.5 13.175781 300.5 17.75 L 300.5 283.25 C 300.5 287.824219 298.683594 292.210938 295.449219 295.449219 C 292.210938 298.683594 287.824219 300.5 283.25 300.5 L 17.75 300.5 C 13.175781 300.5 8.789062 298.683594 5.550781 295.449219 C 2.316406 292.210938 0.5 287.824219 0.5 283.25 L 0.5 17.75 C 0.5 13.175781 2.316406 8.789062 5.550781 5.550781 C 8.789062 2.316406 13.175781 0.5 17.75 0.5 Z M 17.75 0.5 " clip-rule="nonzero"/></clipPath><clipPath id="6cf38ba150"><rect x="0" width="301" y="0" height="301"/></clipPath><clipPath id="9922c210b4"><path d="M 106.195312 49.984375 L 268.945312 49.984375 L 268.945312 325.234375 L 106.195312 325.234375 Z M 106.195312 49.984375 " clip-rule="nonzero"/></clipPath></defs><g clip-path="url(#26f184009a)"><g clip-path="url(#e1e86794da)"><g transform="matrix(1, 0, 0, 1, 37, 37)"><g clip-path="url(#6cf38ba150)"><g clip-path="url(#762b84b1eb)"><g clip-path="url(#6f832869cb)"><path fill="#222222" d="M 0.5 0.5 L 300.5 0.5 L 300.5 300.5 L 0.5 300.5 Z M 0.5 0.5 " fill-opacity="1" fill-rule="nonzero"/></g></g></g></g></g></g><g clip-path="url(#9922c210b4)"><path fill="#fa8112" d="M 187.5 49.984375 C 186.859375 49.984375 186.238281 50.082031 185.628906 50.273438 C 185.019531 50.464844 184.453125 50.742188 183.929688 51.105469 C 183.40625 51.46875 182.949219 51.902344 182.558594 52.410156 C 182.167969 52.914062 181.859375 53.464844 181.640625 54.0625 L 108.171875 193.359375 C 106.890625 195.386719 106.246094 197.601562 106.242188 200 C 106.242188 200.820312 106.320312 201.632812 106.480469 202.4375 C 106.640625 203.246094 106.878906 204.027344 107.191406 204.785156 C 107.507812 205.542969 107.890625 206.261719 108.347656 206.945312 C 108.804688 207.628906 109.320312 208.257812 109.902344 208.839844 C 110.484375 209.421875 111.113281 209.9375 111.796875 210.394531 C 112.480469 210.851562 113.199219 211.234375 113.957031 211.550781 C 114.714844 211.863281 115.5 212.101562 116.304688 212.261719 C 117.109375 212.421875 117.921875 212.5 118.742188 212.5 L 181.25 212.5 L 181.25 318.761719 C 181.25 319.171875 181.289062 319.578125 181.367188 319.980469 C 181.449219 320.382812 181.566406 320.773438 181.722656 321.152344 C 181.882812 321.53125 182.074219 321.894531 182.300781 322.234375 C 182.53125 322.574219 182.789062 322.890625 183.078125 323.183594 C 183.371094 323.472656 183.683594 323.730469 184.027344 323.960938 C 184.367188 324.1875 184.726562 324.378906 185.105469 324.535156 C 185.484375 324.695312 185.878906 324.8125 186.28125 324.890625 C 186.683594 324.972656 187.089844 325.011719 187.5 325.011719 C 188.074219 325.011719 188.640625 324.9375 189.191406 324.78125 C 189.746094 324.625 190.269531 324.398438 190.761719 324.097656 C 191.25 323.800781 191.691406 323.4375 192.085938 323.019531 C 192.476562 322.597656 192.804688 322.128906 193.066406 321.617188 L 267.074219 181.273438 L 267.046875 181.25 C 268.175781 179.316406 268.746094 177.234375 268.757812 174.996094 C 268.757812 174.175781 268.675781 173.363281 268.515625 172.558594 C 268.355469 171.753906 268.121094 170.972656 267.804688 170.214844 C 267.492188 169.457031 267.105469 168.734375 266.648438 168.050781 C 266.195312 167.371094 265.675781 166.738281 265.09375 166.15625 C 264.515625 165.578125 263.882812 165.058594 263.203125 164.601562 C 262.519531 164.148438 261.796875 163.761719 261.039062 163.449219 C 260.28125 163.132812 259.5 162.898438 258.695312 162.738281 C 257.890625 162.578125 257.078125 162.496094 256.257812 162.496094 L 193.75 162.496094 L 193.75 56.234375 C 193.75 55.824219 193.710938 55.417969 193.628906 55.015625 C 193.550781 54.613281 193.429688 54.222656 193.273438 53.84375 C 193.117188 53.464844 192.925781 53.105469 192.695312 52.761719 C 192.46875 52.421875 192.210938 52.105469 191.917969 51.816406 C 191.628906 51.527344 191.3125 51.265625 190.972656 51.039062 C 190.628906 50.8125 190.269531 50.617188 189.890625 50.460938 C 189.511719 50.304688 189.121094 50.183594 188.71875 50.105469 C 188.316406 50.023438 187.910156 49.984375 187.5 49.984375 Z M 187.5 49.984375 " fill-opacity="1" fill-rule="nonzero"/></g></svg>